<?xml version="1.0" standalone="no"?>
<!DOCTYPE svg PUBLIC "-//W3C//DTD SVG 20010904//EN"
 "http://www.w3.org/TR/2001/REC-SVG-20010904/DTD/svg10.dtd">
<svg version="1.0" xmlns="http://www.w3.org/2000/svg"
 width="512.000000pt" height="512.000000pt" viewBox="0 0 512.000000 512.000000"
 preserveAspectRatio="xMidYMid meet">


<style>
    path {
      fill: #000;
      stroke: #000;
      stroke-width: 3px;
    }
    @media (prefers-color-scheme: dark) {
      path {
        fill: #000;
        stroke: #000;
      }
    }
</style>
<g transform="translate(0.000000,512.000000) scale(0.100000,-0.100000)"
fill="#F5D3C8" stroke="none">
<path d="M2850 5109 c-30 -12 -2125 -2102 -2146 -2141 -17 -32 -18 -91 -3
-121 16 -31 1418 -1435 1451 -1453 32 -17 85 -18 125 -3 35 13 2084 2057 2124
2118 32 50 37 94 15 144 -18 42 -1421 1443 -1459 1457 -34 12 -74 12 -107 -1z"/>
<path d="M3265 1939 c-456 -457 -772 -766 -807 -789 -124 -81 -288 -93 -428
-30 -72 33 -90 49 -503 459 l-427 426 -176 -175 c-97 -96 -189 -195 -205 -219
-32 -50 -37 -94 -15 -144 8 -18 314 -332 727 -744 625 -623 719 -712 751 -718
85 -16 30 -67 1162 1063 620 619 1064 1070 1072 1089 18 41 18 87 0 121 -8 15
-102 114 -208 219 l-193 193 -750 -751z"/>
</g>
</svg>
