<svg id="erDVEG0Ri851" xmlns="http://www.w3.org/2000/svg" xmlns:xlink="http://www.w3.org/1999/xlink" viewBox="0 0 2500 512" shape-rendering="geometricPrecision" text-rendering="geometricPrecision"><g transform="matrix(.1 0 0-.1 0 512)"><path d="M2850,5109c-30-12-2125-2102-2146-2141-17-32-18-91-3-121c16-31,1418-1435,1451-1453c32-17,85-18,125-3c35,13,2084,2057,2124,2118c32,50,37,94,15,144-18,42-1421,1443-1459,1457-34,12-74,12-107-1Z" fill="#f5d3c8"/><path d="M3265,1939c-456-457-772-766-807-789-124-81-288-93-428-30-72,33-90,49-503,459l-427,426-176-175c-97-96-189-195-205-219-32-50-37-94-15-144c8-18,314-332,727-744C2056,100,2150,11,2182,5c85-16,30-67,1162,1063c620,619,1064,1070,1072,1089c18,41,18,87,0,121-8,15-102,114-208,219l-193,193-750-751Z" fill="#f5d3c8"/></g><text dx="0" dy="0" font-family="&quot;erDVEG0Ri851:::Open Sans&quot;" font-size="200" font-weight="400" transform="matrix(1.461105 0 0 1.461105 534.601947 356.392324)" fill="#090503" stroke-width="0"><tspan y="0" font-weight="400" stroke-width="0"><![CDATA[
cardexchange
]]></tspan></text>

</svg>
